<?xml version="1.0" encoding="UTF-8"?><svg xmlns="http://www.w3.org/2000/svg" viewBox="0 0 24 24"><g id="a"/><g id="b"/><g id="c"/><g id="d"><path d="M21,17.95h-1V5.95h1c.55,0,1-.45,1-1s-.45-1-1-1h-1v-1c0-.55-.45-1-1-1s-1,.45-1,1v1H6v-1c0-.55-.45-1-1-1s-1,.45-1,1v1h-1c-.55,0-1,.45-1,1s.45,1,1,1h1v12h-1c-.55,0-1,.45-1,1s.45,1,1,1h1v1c0,.55,.45,1,1,1s1-.45,1-1v-1h12v1c0,.55,.45,1,1,1s1-.45,1-1v-1h1c.55,0,1-.45,1-1s-.45-1-1-1Zm-3,0H6V5.95h12v12Z"/><path d="M16,16.95H8c-.55,0-1-.45-1-1V7.95c0-.55,.45-1,1-1h8c.55,0,1,.45,1,1V15.95c0,.55-.45,1-1,1Zm-7-2h6v-6h-6v6Z"/></g></svg>