<?xml version="1.0" encoding="UTF-8"?><svg xmlns="http://www.w3.org/2000/svg" viewBox="0 0 24 24"><g id="a"/><g id="b"/><g id="c"/><g id="d"><path d="M21.96,20.69l-3-11c-.11-.44-.51-.74-.96-.74h-5v-1c0-.06-.01-.12-.02-.17,1.17-.41,2.02-1.52,2.02-2.83,0-1.65-1.35-3-3-3s-3,1.35-3,3c0,1.31,.85,2.42,2.02,2.83-.01,.05-.02,.11-.02,.17v1H6c-.45,0-.85,.3-.96,.74l-3,11c-.09,.3-.02,.62,.17,.87,.18,.24,.48,.39,.79,.39H21c.31,0,.61-.15,.79-.39,.19-.25,.26-.57,.17-.87ZM11,4.95c0-.55,.45-1,1-1s1,.45,1,1-.45,1-1,1-1-.45-1-1Zm-6.69,15l2.45-9h10.48l2.45,9H4.31Z"/></g></svg>