<?xml version="1.0" encoding="UTF-8"?><svg xmlns="http://www.w3.org/2000/svg" viewBox="0 0 24 24"><g id="a"/><g id="b"/><g id="c"/><g id="d"><path d="M21.96,2.7c0-.05-.02-.09-.04-.14-.04-.12-.12-.23-.21-.32-.09-.09-.2-.16-.32-.21-.05-.02-.09-.04-.14-.04-.08-.03-.17-.04-.25-.04H9c-.55,0-1,.45-1,1V7.95H3c-.55,0-1,.45-1,1v12c0,.55,.45,1,1,1H15c.55,0,1-.45,1-1v-5h5c.55,0,1-.45,1-1V2.95c0-.08-.01-.17-.04-.25Zm-11.96,1.25h3.08l-3.08,3.08V3.95Zm0,5.87c.08-.05,.15-.1,.21-.16L15.92,3.95h2.66L10,12.53v-2.71Zm-6,10.13V9.95h1v5.05c0,2.05,.61,3.77,1.2,4.95h-2.2Zm6.09,0h-1.61c-.5-.79-1.48-2.63-1.48-4.95v-5.05h1v5c0,.08,.01,.17,.04,.25,0,.05,.02,.09,.04,.14,.04,.12,.12,.23,.21,.32,.1,.09,.21,.16,.32,.21,.05,.02,.09,.04,.14,.04,.08,.03,.16,.04,.25,.04h2.11c-1.03,1.2-1.12,2.87-1.02,4Zm3.91,0h-1.91c-.09-.89-.04-2.13,.62-2.79,.46-.46,.91-.74,1.29-.92v3.71Zm6-6h-3.08l3.08-3.08v3.08Zm0-5.87c-.08,.04-.15,.09-.21,.16l-5.71,5.71h-2.66L20,5.37v2.71Z"/></g></svg>