<?xml version="1.0" standalone="no"?>
<svg xmlns="http://www.w3.org/2000/svg" width="500" height="500"><defs><clipPath id="clip-path-dot-color"><rect x="12" y="164" width="19" height="19" transform="rotate(0,21.5,173.5)"/><rect x="12" y="183" width="19" height="19" transform="rotate(0,21.5,192.5)"/><rect x="12" y="202" width="19" height="19" transform="rotate(0,21.5,211.5)"/><rect x="12" y="240" width="19" height="19" transform="rotate(0,21.5,249.5)"/><rect x="12" y="259" width="19" height="19" transform="rotate(0,21.5,268.5)"/><rect x="12" y="316" width="19" height="19" transform="rotate(0,21.5,325.5)"/><rect x="31" y="183" width="19" height="19" transform="rotate(0,40.5,192.5)"/><rect x="31" y="202" width="19" height="19" transform="rotate(0,40.5,211.5)"/><rect x="31" y="240" width="19" height="19" transform="rotate(0,40.5,249.5)"/><rect x="31" y="259" width="19" height="19" transform="rotate(0,40.5,268.5)"/><rect x="31" y="278" width="19" height="19" transform="rotate(0,40.5,287.5)"/><rect x="31" y="297" width="19" height="19" transform="rotate(0,40.5,306.5)"/><rect x="50" y="164" width="19" height="19" transform="rotate(0,59.5,173.5)"/><rect x="50" y="183" width="19" height="19" transform="rotate(0,59.5,192.5)"/><rect x="50" y="259" width="19" height="19" transform="rotate(0,59.5,268.5)"/><rect x="50" y="316" width="19" height="19" transform="rotate(0,59.5,325.5)"/><rect x="69" y="164" width="19" height="19" transform="rotate(0,78.5,173.5)"/><rect x="69" y="183" width="19" height="19" transform="rotate(0,78.5,192.5)"/><rect x="69" y="221" width="19" height="19" transform="rotate(0,78.5,230.5)"/><rect x="69" y="259" width="19" height="19" transform="rotate(0,78.5,268.5)"/><rect x="69" y="278" width="19" height="19" transform="rotate(0,78.5,287.5)"/><rect x="69" y="297" width="19" height="19" transform="rotate(0,78.5,306.5)"/><rect x="88" y="183" width="19" height="19" transform="rotate(0,97.5,192.5)"/><rect x="88" y="221" width="19" height="19" transform="rotate(0,97.5,230.5)"/><rect x="88" y="259" width="19" height="19" transform="rotate(0,97.5,268.5)"/><rect x="88" y="278" width="19" height="19" transform="rotate(0,97.5,287.5)"/><rect x="88" y="316" width="19" height="19" transform="rotate(0,97.5,325.5)"/><rect x="107" y="164" width="19" height="19" transform="rotate(0,116.5,173.5)"/><rect x="107" y="202" width="19" height="19" transform="rotate(0,116.5,211.5)"/><rect x="107" y="240" width="19" height="19" transform="rotate(0,116.5,249.5)"/><rect x="107" y="259" width="19" height="19" transform="rotate(0,116.5,268.5)"/><rect x="107" y="278" width="19" height="19" transform="rotate(0,116.5,287.5)"/><rect x="126" y="164" width="19" height="19" transform="rotate(0,135.5,173.5)"/><rect x="126" y="202" width="19" height="19" transform="rotate(0,135.5,211.5)"/><rect x="126" y="240" width="19" height="19" transform="rotate(0,135.5,249.5)"/><rect x="126" y="278" width="19" height="19" transform="rotate(0,135.5,287.5)"/><rect x="126" y="316" width="19" height="19" transform="rotate(0,135.5,325.5)"/><rect x="145" y="164" width="19" height="19" transform="rotate(0,154.5,173.5)"/><rect x="145" y="183" width="19" height="19" transform="rotate(0,154.5,192.5)"/><rect x="145" y="202" width="19" height="19" transform="rotate(0,154.5,211.5)"/><rect x="145" y="221" width="19" height="19" transform="rotate(0,154.5,230.5)"/><rect x="145" y="278" width="19" height="19" transform="rotate(0,154.5,287.5)"/><rect x="164" y="31" width="19" height="19" transform="rotate(0,173.5,40.5)"/><rect x="164" y="69" width="19" height="19" transform="rotate(0,173.5,78.5)"/><rect x="164" y="107" width="19" height="19" transform="rotate(0,173.5,116.5)"/><rect x="164" y="126" width="19" height="19" transform="rotate(0,173.5,135.5)"/><rect x="164" y="145" width="19" height="19" transform="rotate(0,173.5,154.5)"/><rect x="164" y="164" width="19" height="19" transform="rotate(0,173.5,173.5)"/><rect x="164" y="202" width="19" height="19" transform="rotate(0,173.5,211.5)"/><rect x="164" y="221" width="19" height="19" transform="rotate(0,173.5,230.5)"/><rect x="164" y="240" width="19" height="19" transform="rotate(0,173.5,249.5)"/><rect x="164" y="297" width="19" height="19" transform="rotate(0,173.5,306.5)"/><rect x="164" y="335" width="19" height="19" transform="rotate(0,173.5,344.5)"/><rect x="164" y="354" width="19" height="19" transform="rotate(0,173.5,363.5)"/><rect x="164" y="373" width="19" height="19" transform="rotate(0,173.5,382.5)"/><rect x="164" y="411" width="19" height="19" transform="rotate(0,173.5,420.5)"/><rect x="164" y="430" width="19" height="19" transform="rotate(0,173.5,439.5)"/><rect x="164" y="468" width="19" height="19" transform="rotate(0,173.5,477.5)"/><rect x="183" y="31" width="19" height="19" transform="rotate(0,192.5,40.5)"/><rect x="183" y="50" width="19" height="19" transform="rotate(0,192.5,59.5)"/><rect x="183" y="69" width="19" height="19" transform="rotate(0,192.5,78.5)"/><rect x="183" y="88" width="19" height="19" transform="rotate(0,192.5,97.5)"/><rect x="183" y="164" width="19" height="19" transform="rotate(0,192.5,173.5)"/><rect x="183" y="183" width="19" height="19" transform="rotate(0,192.5,192.5)"/><rect x="183" y="221" width="19" height="19" transform="rotate(0,192.5,230.5)"/><rect x="183" y="240" width="19" height="19" transform="rotate(0,192.5,249.5)"/><rect x="183" y="278" width="19" height="19" transform="rotate(0,192.5,287.5)"/><rect x="183" y="297" width="19" height="19" transform="rotate(0,192.5,306.5)"/><rect x="183" y="354" width="19" height="19" transform="rotate(0,192.5,363.5)"/><rect x="183" y="468" width="19" height="19" transform="rotate(0,192.5,477.5)"/><rect x="202" y="12" width="19" height="19" transform="rotate(0,211.5,21.5)"/><rect x="202" y="31" width="19" height="19" transform="rotate(0,211.5,40.5)"/><rect x="202" y="107" width="19" height="19" transform="rotate(0,211.5,116.5)"/><rect x="202" y="126" width="19" height="19" transform="rotate(0,211.5,135.5)"/><rect x="202" y="145" width="19" height="19" transform="rotate(0,211.5,154.5)"/><rect x="202" y="164" width="19" height="19" transform="rotate(0,211.5,173.5)"/><rect x="202" y="221" width="19" height="19" transform="rotate(0,211.5,230.5)"/><rect x="202" y="316" width="19" height="19" transform="rotate(0,211.5,325.5)"/><rect x="202" y="335" width="19" height="19" transform="rotate(0,211.5,344.5)"/><rect x="202" y="354" width="19" height="19" transform="rotate(0,211.5,363.5)"/><rect x="202" y="392" width="19" height="19" transform="rotate(0,211.5,401.5)"/><rect x="202" y="411" width="19" height="19" transform="rotate(0,211.5,420.5)"/><rect x="202" y="430" width="19" height="19" transform="rotate(0,211.5,439.5)"/><rect x="202" y="449" width="19" height="19" transform="rotate(0,211.5,458.5)"/><rect x="202" y="468" width="19" height="19" transform="rotate(0,211.5,477.5)"/><rect x="221" y="50" width="19" height="19" transform="rotate(0,230.5,59.5)"/><rect x="221" y="107" width="19" height="19" transform="rotate(0,230.5,116.5)"/><rect x="221" y="164" width="19" height="19" transform="rotate(0,230.5,173.5)"/><rect x="221" y="202" width="19" height="19" transform="rotate(0,230.5,211.5)"/><rect x="221" y="278" width="19" height="19" transform="rotate(0,230.5,287.5)"/><rect x="221" y="297" width="19" height="19" transform="rotate(0,230.5,306.5)"/><rect x="221" y="392" width="19" height="19" transform="rotate(0,230.5,401.5)"/><rect x="221" y="411" width="19" height="19" transform="rotate(0,230.5,420.5)"/><rect x="221" y="449" width="19" height="19" transform="rotate(0,230.5,458.5)"/><rect x="221" y="468" width="19" height="19" transform="rotate(0,230.5,477.5)"/><rect x="240" y="31" width="19" height="19" transform="rotate(0,249.5,40.5)"/><rect x="240" y="69" width="19" height="19" transform="rotate(0,249.5,78.5)"/><rect x="240" y="107" width="19" height="19" transform="rotate(0,249.5,116.5)"/><rect x="240" y="126" width="19" height="19" transform="rotate(0,249.5,135.5)"/><rect x="240" y="145" width="19" height="19" transform="rotate(0,249.5,154.5)"/><rect x="240" y="164" width="19" height="19" transform="rotate(0,249.5,173.5)"/><rect x="240" y="183" width="19" height="19" transform="rotate(0,249.5,192.5)"/><rect x="240" y="221" width="19" height="19" transform="rotate(0,249.5,230.5)"/><rect x="240" y="316" width="19" height="19" transform="rotate(0,249.5,325.5)"/><rect x="240" y="354" width="19" height="19" transform="rotate(0,249.5,363.5)"/><rect x="240" y="449" width="19" height="19" transform="rotate(0,249.5,458.5)"/><rect x="240" y="468" width="19" height="19" transform="rotate(0,249.5,477.5)"/><rect x="259" y="31" width="19" height="19" transform="rotate(0,268.5,40.5)"/><rect x="259" y="69" width="19" height="19" transform="rotate(0,268.5,78.5)"/><rect x="259" y="88" width="19" height="19" transform="rotate(0,268.5,97.5)"/><rect x="259" y="107" width="19" height="19" transform="rotate(0,268.5,116.5)"/><rect x="259" y="164" width="19" height="19" transform="rotate(0,268.5,173.5)"/><rect x="259" y="202" width="19" height="19" transform="rotate(0,268.5,211.5)"/><rect x="259" y="259" width="19" height="19" transform="rotate(0,268.5,268.5)"/><rect x="259" y="297" width="19" height="19" transform="rotate(0,268.5,306.5)"/><rect x="259" y="335" width="19" height="19" transform="rotate(0,268.5,344.5)"/><rect x="259" y="354" width="19" height="19" transform="rotate(0,268.5,363.5)"/><rect x="259" y="373" width="19" height="19" transform="rotate(0,268.5,382.5)"/><rect x="259" y="468" width="19" height="19" transform="rotate(0,268.5,477.5)"/><rect x="278" y="12" width="19" height="19" transform="rotate(0,287.5,21.5)"/><rect x="278" y="88" width="19" height="19" transform="rotate(0,287.5,97.5)"/><rect x="278" y="126" width="19" height="19" transform="rotate(0,287.5,135.5)"/><rect x="278" y="202" width="19" height="19" transform="rotate(0,287.5,211.5)"/><rect x="278" y="240" width="19" height="19" transform="rotate(0,287.5,249.5)"/><rect x="278" y="259" width="19" height="19" transform="rotate(0,287.5,268.5)"/><rect x="278" y="278" width="19" height="19" transform="rotate(0,287.5,287.5)"/><rect x="278" y="297" width="19" height="19" transform="rotate(0,287.5,306.5)"/><rect x="278" y="316" width="19" height="19" transform="rotate(0,287.5,325.5)"/><rect x="278" y="468" width="19" height="19" transform="rotate(0,287.5,477.5)"/><rect x="297" y="31" width="19" height="19" transform="rotate(0,306.5,40.5)"/><rect x="297" y="50" width="19" height="19" transform="rotate(0,306.5,59.5)"/><rect x="297" y="69" width="19" height="19" transform="rotate(0,306.5,78.5)"/><rect x="297" y="183" width="19" height="19" transform="rotate(0,306.5,192.5)"/><rect x="297" y="202" width="19" height="19" transform="rotate(0,306.5,211.5)"/><rect x="297" y="316" width="19" height="19" transform="rotate(0,306.5,325.5)"/><rect x="297" y="335" width="19" height="19" transform="rotate(0,306.5,344.5)"/><rect x="297" y="354" width="19" height="19" transform="rotate(0,306.5,363.5)"/><rect x="297" y="373" width="19" height="19" transform="rotate(0,306.5,382.5)"/><rect x="297" y="468" width="19" height="19" transform="rotate(0,306.5,477.5)"/><rect x="316" y="12" width="19" height="19" transform="rotate(0,325.5,21.5)"/><rect x="316" y="31" width="19" height="19" transform="rotate(0,325.5,40.5)"/><rect x="316" y="69" width="19" height="19" transform="rotate(0,325.5,78.5)"/><rect x="316" y="126" width="19" height="19" transform="rotate(0,325.5,135.5)"/><rect x="316" y="145" width="19" height="19" transform="rotate(0,325.5,154.5)"/><rect x="316" y="183" width="19" height="19" transform="rotate(0,325.5,192.5)"/><rect x="316" y="202" width="19" height="19" transform="rotate(0,325.5,211.5)"/><rect x="316" y="240" width="19" height="19" transform="rotate(0,325.5,249.5)"/><rect x="316" y="297" width="19" height="19" transform="rotate(0,325.5,306.5)"/><rect x="316" y="316" width="19" height="19" transform="rotate(0,325.5,325.5)"/><rect x="316" y="335" width="19" height="19" transform="rotate(0,325.5,344.5)"/><rect x="316" y="354" width="19" height="19" transform="rotate(0,325.5,363.5)"/><rect x="316" y="373" width="19" height="19" transform="rotate(0,325.5,382.5)"/><rect x="316" y="392" width="19" height="19" transform="rotate(0,325.5,401.5)"/><rect x="316" y="411" width="19" height="19" transform="rotate(0,325.5,420.5)"/><rect x="316" y="430" width="19" height="19" transform="rotate(0,325.5,439.5)"/><rect x="316" y="449" width="19" height="19" transform="rotate(0,325.5,458.5)"/><rect x="316" y="468" width="19" height="19" transform="rotate(0,325.5,477.5)"/><rect x="335" y="164" width="19" height="19" transform="rotate(0,344.5,173.5)"/><rect x="335" y="183" width="19" height="19" transform="rotate(0,344.5,192.5)"/><rect x="335" y="202" width="19" height="19" transform="rotate(0,344.5,211.5)"/><rect x="335" y="221" width="19" height="19" transform="rotate(0,344.5,230.5)"/><rect x="335" y="259" width="19" height="19" transform="rotate(0,344.5,268.5)"/><rect x="335" y="297" width="19" height="19" transform="rotate(0,344.5,306.5)"/><rect x="335" y="316" width="19" height="19" transform="rotate(0,344.5,325.5)"/><rect x="335" y="392" width="19" height="19" transform="rotate(0,344.5,401.5)"/><rect x="335" y="411" width="19" height="19" transform="rotate(0,344.5,420.5)"/><rect x="335" y="449" width="19" height="19" transform="rotate(0,344.5,458.5)"/><rect x="335" y="468" width="19" height="19" transform="rotate(0,344.5,477.5)"/><rect x="354" y="164" width="19" height="19" transform="rotate(0,363.5,173.5)"/><rect x="354" y="259" width="19" height="19" transform="rotate(0,363.5,268.5)"/><rect x="354" y="278" width="19" height="19" transform="rotate(0,363.5,287.5)"/><rect x="354" y="316" width="19" height="19" transform="rotate(0,363.5,325.5)"/><rect x="354" y="354" width="19" height="19" transform="rotate(0,363.5,363.5)"/><rect x="354" y="392" width="19" height="19" transform="rotate(0,363.5,401.5)"/><rect x="354" y="411" width="19" height="19" transform="rotate(0,363.5,420.5)"/><rect x="354" y="449" width="19" height="19" transform="rotate(0,363.5,458.5)"/><rect x="354" y="468" width="19" height="19" transform="rotate(0,363.5,477.5)"/><rect x="373" y="164" width="19" height="19" transform="rotate(0,382.5,173.5)"/><rect x="373" y="183" width="19" height="19" transform="rotate(0,382.5,192.5)"/><rect x="373" y="221" width="19" height="19" transform="rotate(0,382.5,230.5)"/><rect x="373" y="278" width="19" height="19" transform="rotate(0,382.5,287.5)"/><rect x="373" y="297" width="19" height="19" transform="rotate(0,382.5,306.5)"/><rect x="373" y="316" width="19" height="19" transform="rotate(0,382.5,325.5)"/><rect x="373" y="392" width="19" height="19" transform="rotate(0,382.5,401.5)"/><rect x="373" y="430" width="19" height="19" transform="rotate(0,382.5,439.5)"/><rect x="392" y="202" width="19" height="19" transform="rotate(0,401.5,211.5)"/><rect x="392" y="221" width="19" height="19" transform="rotate(0,401.5,230.5)"/><rect x="392" y="259" width="19" height="19" transform="rotate(0,401.5,268.5)"/><rect x="392" y="278" width="19" height="19" transform="rotate(0,401.5,287.5)"/><rect x="392" y="316" width="19" height="19" transform="rotate(0,401.5,325.5)"/><rect x="392" y="335" width="19" height="19" transform="rotate(0,401.5,344.5)"/><rect x="392" y="354" width="19" height="19" transform="rotate(0,401.5,363.5)"/><rect x="392" y="373" width="19" height="19" transform="rotate(0,401.5,382.5)"/><rect x="392" y="392" width="19" height="19" transform="rotate(0,401.5,401.5)"/><rect x="411" y="164" width="19" height="19" transform="rotate(0,420.5,173.5)"/><rect x="411" y="183" width="19" height="19" transform="rotate(0,420.5,192.5)"/><rect x="411" y="221" width="19" height="19" transform="rotate(0,420.5,230.5)"/><rect x="411" y="259" width="19" height="19" transform="rotate(0,420.5,268.5)"/><rect x="411" y="278" width="19" height="19" transform="rotate(0,420.5,287.5)"/><rect x="411" y="392" width="19" height="19" transform="rotate(0,420.5,401.5)"/><rect x="411" y="411" width="19" height="19" transform="rotate(0,420.5,420.5)"/><rect x="411" y="430" width="19" height="19" transform="rotate(0,420.5,439.5)"/><rect x="411" y="449" width="19" height="19" transform="rotate(0,420.5,458.5)"/><rect x="430" y="259" width="19" height="19" transform="rotate(0,439.5,268.5)"/><rect x="430" y="297" width="19" height="19" transform="rotate(0,439.5,306.5)"/><rect x="430" y="335" width="19" height="19" transform="rotate(0,439.5,344.5)"/><rect x="430" y="392" width="19" height="19" transform="rotate(0,439.5,401.5)"/><rect x="430" y="468" width="19" height="19" transform="rotate(0,439.5,477.5)"/><rect x="449" y="164" width="19" height="19" transform="rotate(0,458.5,173.5)"/><rect x="449" y="183" width="19" height="19" transform="rotate(0,458.5,192.5)"/><rect x="449" y="240" width="19" height="19" transform="rotate(0,458.5,249.5)"/><rect x="449" y="278" width="19" height="19" transform="rotate(0,458.5,287.5)"/><rect x="449" y="316" width="19" height="19" transform="rotate(0,458.5,325.5)"/><rect x="468" y="202" width="19" height="19" transform="rotate(0,477.5,211.5)"/><rect x="468" y="297" width="19" height="19" transform="rotate(0,477.5,306.5)"/><rect x="468" y="316" width="19" height="19" transform="rotate(0,477.5,325.5)"/><rect x="468" y="373" width="19" height="19" transform="rotate(0,477.5,382.5)"/><rect x="468" y="449" width="19" height="19" transform="rotate(0,477.5,458.5)"/><rect x="468" y="468" width="19" height="19" transform="rotate(0,477.5,477.5)"/></clipPath><clipPath id="clip-path-corners-square-color-0-0"><path clip-rule="evenodd" d="M 12 12v 133h 133v -133zM 31 31h 95v 95h -95z" transform="rotate(0,78.5,78.5)"/></clipPath><clipPath id="clip-path-corners-dot-color-0-0"><rect x="50" y="50" width="57" height="57" transform="rotate(0,78.5,78.5)"/></clipPath><clipPath id="clip-path-corners-square-color-1-0"><path clip-rule="evenodd" d="M 354 12v 133h 133v -133zM 373 31h 95v 95h -95z" transform="rotate(90,420.5,78.5)"/></clipPath><clipPath id="clip-path-corners-dot-color-1-0"><rect x="392" y="50" width="57" height="57" transform="rotate(90,420.5,78.5)"/></clipPath><clipPath id="clip-path-corners-square-color-0-1"><path clip-rule="evenodd" d="M 12 354v 133h 133v -133zM 31 373h 95v 95h -95z" transform="rotate(-90,78.5,420.5)"/></clipPath><clipPath id="clip-path-corners-dot-color-0-1"><rect x="50" y="392" width="57" height="57" transform="rotate(-90,78.5,420.5)"/></clipPath></defs><rect x="0" y="0" height="500" width="500" clip-path="url('#clip-path-background-color')" fill="#fff"/><rect x="0" y="0" height="500" width="500" clip-path="url('#clip-path-dot-color')" fill="#ffdc26"/><rect x="12" y="12" height="133" width="133" clip-path="url('#clip-path-corners-square-color-0-0')" fill="#ffdc26"/><rect x="50" y="50" height="57" width="57" clip-path="url('#clip-path-corners-dot-color-0-0')" fill="#ffdc26"/><rect x="354" y="12" height="133" width="133" clip-path="url('#clip-path-corners-square-color-1-0')" fill="#ffdc26"/><rect x="392" y="50" height="57" width="57" clip-path="url('#clip-path-corners-dot-color-1-0')" fill="#ffdc26"/><rect x="12" y="354" height="133" width="133" clip-path="url('#clip-path-corners-square-color-0-1')" fill="#ffdc26"/><rect x="50" y="392" height="57" width="57" clip-path="url('#clip-path-corners-dot-color-0-1')" fill="#ffdc26"/></svg>