<svg xmlns="http://www.w3.org/2000/svg" width="32" height="32" fill-rule="evenodd" clip-rule="evenodd" image-rendering="optimizeQuality" shape-rendering="geometricPrecision" text-rendering="geometricPrecision"><path fill="#ffdc26" fill-rule="nonzero" d="M4.83 32c-.69 0-1.29-.25-1.79-.75-.5-.51-.76-1.1-.76-1.79V9.9c0-.68.26-1.28.76-1.78s1.1-.76 1.79-.76h3.8c0-2.04.7-3.77 2.09-5.21C12.12.72 13.83 0 15.87 0s3.8.72 5.28 2.15c1.48 1.44 2.22 3.17 2.22 5.21h3.8c.69 0 1.29.26 1.79.76s.76 1.1.76 1.78v19.56c0 .69-.26 1.28-.76 1.79-.5.5-1.1.75-1.79.75zM16 19.05q3.06 0 5.28-2.22c1.47-1.48 2.21-3.23 2.21-5.27h-2.54c0 1.35-.48 2.51-1.46 3.49-.97.97-2.14 1.46-3.49 1.46s-2.52-.49-3.49-1.46c-.98-.98-1.46-2.14-1.46-3.49H8.51c0 2.04.74 3.79 2.21 5.27q2.22 2.22 5.28 2.22M11.17 7.36h9.66c0-1.35-.47-2.49-1.4-3.42-.93-.94-2.08-1.4-3.43-1.4s-2.5.46-3.43 1.4c-.93.93-1.4 2.07-1.4 3.42"/></svg>
