<?xml version="1.0" encoding="UTF-8"?>
<svg xmlns="http://www.w3.org/2000/svg"  width="114px" height="32px" viewBox="0 0 112 32" >
<g id="surface1">
<path d="M 0.0820312 20.417969 L 4.800781 19.699219 C 5 20.609375 5.40625 21.300781 6.019531 21.773438 C 6.628906 22.25 7.488281 22.484375 8.589844 22.484375 C 9.800781 22.484375 10.714844 22.261719 11.328125 21.8125 C 11.738281 21.496094 11.945312 21.074219 11.945312 20.546875 C 11.945312 20.191406 11.832031 19.890625 11.609375 19.65625 C 11.375 19.433594 10.851562 19.222656 10.042969 19.03125 C 6.253906 18.191406 3.855469 17.421875 2.839844 16.726562 C 1.433594 15.757812 0.734375 14.417969 0.734375 12.703125 C 0.734375 11.148438 1.34375 9.847656 2.554688 8.789062 C 3.769531 7.734375 5.648438 7.207031 8.195312 7.207031 C 10.625 7.207031 12.429688 7.609375 13.609375 8.40625 C 14.785156 9.210938 15.601562 10.390625 16.046875 11.957031 L 11.636719 12.78125 C 11.449219 12.082031 11.085938 11.542969 10.554688 11.171875 C 10.023438 10.796875 9.265625 10.613281 8.28125 10.613281 C 7.039062 10.613281 6.152344 10.785156 5.609375 11.136719 C 5.25 11.382812 5.074219 11.703125 5.074219 12.09375 C 5.074219 12.433594 5.226562 12.71875 5.539062 12.953125 C 5.96875 13.269531 7.433594 13.710938 9.9375 14.285156 C 12.445312 14.859375 14.195312 15.558594 15.1875 16.390625 C 16.171875 17.226562 16.660156 18.402344 16.660156 19.902344 C 16.660156 21.539062 15.984375 22.949219 14.621094 24.125 C 13.265625 25.300781 11.253906 25.890625 8.589844 25.890625 C 6.175781 25.890625 4.257812 25.398438 2.847656 24.417969 C 1.4375 23.4375 0.515625 22.105469 0.0820312 20.417969 M 25.382812 0.808594 L 25.382812 9.9375 C 26.90625 8.121094 28.726562 7.207031 30.839844 7.207031 C 31.929688 7.207031 32.910156 7.410156 33.78125 7.808594 C 34.652344 8.21875 35.308594 8.726562 35.75 9.359375 C 36.195312 9.984375 36.496094 10.679688 36.65625 11.441406 C 36.824219 12.203125 36.902344 13.382812 36.902344 14.984375 L 36.902344 25.441406 L 32.21875 25.441406 L 32.21875 16.027344 C 32.21875 14.15625 32.128906 12.972656 31.953125 12.464844 C 31.769531 11.960938 31.449219 11.5625 30.996094 11.269531 C 30.539062 10.96875 29.96875 10.820312 29.28125 10.820312 C 28.492188 10.820312 27.792969 11.011719 27.171875 11.394531 C 26.550781 11.773438 26.101562 12.347656 25.816406 13.117188 C 25.527344 13.878906 25.382812 15.011719 25.382812 16.507812 L 25.382812 25.441406 L 20.699219 25.441406 L 20.699219 0.808594 Z M 40.554688 16.296875 C 40.554688 14.726562 40.933594 13.207031 41.703125 11.738281 C 42.472656 10.265625 43.5625 9.148438 44.96875 8.371094 C 46.375 7.597656 47.941406 7.207031 49.679688 7.207031 C 52.363281 7.207031 54.554688 8.085938 56.269531 9.839844 C 57.988281 11.601562 58.839844 13.8125 58.839844 16.496094 C 58.839844 19.203125 57.972656 21.445312 56.25 23.222656 C 54.515625 25 52.339844 25.890625 49.714844 25.890625 C 48.089844 25.890625 46.539062 25.515625 45.0625 24.777344 C 43.59375 24.039062 42.472656 22.953125 41.703125 21.519531 C 40.933594 20.09375 40.554688 18.347656 40.554688 16.296875 M 45.371094 16.550781 C 45.371094 18.320312 45.789062 19.679688 46.621094 20.621094 C 47.457031 21.566406 48.484375 22.035156 49.707031 22.035156 C 50.925781 22.035156 51.953125 21.566406 52.777344 20.621094 C 53.605469 19.679688 54.019531 18.308594 54.019531 16.515625 C 54.019531 14.765625 53.605469 13.417969 52.777344 12.480469 C 51.953125 11.53125 50.925781 11.0625 49.707031 11.0625 C 48.484375 11.0625 47.457031 11.53125 46.621094 12.480469 C 45.789062 13.417969 45.371094 14.777344 45.371094 16.550781 M 62.390625 7.585938 L 66.765625 7.585938 L 66.765625 10.207031 C 67.335938 9.3125 68.097656 8.589844 69.066406 8.035156 C 70.035156 7.484375 71.109375 7.207031 72.289062 7.207031 C 74.347656 7.207031 76.09375 8.023438 77.53125 9.652344 C 78.96875 11.273438 79.683594 13.542969 79.683594 16.445312 C 79.683594 19.433594 78.960938 21.75 77.515625 23.40625 C 76.066406 25.066406 74.3125 25.890625 72.25 25.890625 C 71.269531 25.890625 70.382812 25.695312 69.585938 25.300781 C 68.792969 24.910156 67.949219 24.238281 67.074219 23.289062 L 67.074219 32.21875 L 62.390625 32.21875 Z M 67.003906 16.238281 C 67.003906 18.25 67.398438 19.738281 68.1875 20.703125 C 68.972656 21.660156 69.9375 22.140625 71.066406 22.140625 C 72.152344 22.140625 73.058594 21.699219 73.785156 20.816406 C 74.507812 19.933594 74.863281 18.488281 74.863281 16.476562 C 74.863281 14.59375 74.496094 13.199219 73.75 12.289062 C 73.007812 11.378906 72.085938 10.925781 70.984375 10.925781 C 69.839844 10.925781 68.890625 11.371094 68.136719 12.265625 C 67.378906 13.160156 67.003906 14.484375 67.003906 16.238281 M 93.660156 19.800781 L 98.339844 20.589844 C 97.742188 22.316406 96.792969 23.632812 95.5 24.535156 C 94.199219 25.4375 92.578125 25.890625 90.632812 25.890625 C 87.550781 25.890625 85.269531 24.875 83.792969 22.847656 C 82.625 21.21875 82.035156 19.164062 82.035156 16.679688 C 82.035156 13.722656 82.804688 11.398438 84.339844 9.726562 C 85.871094 8.046875 87.8125 7.207031 90.160156 7.207031 C 92.792969 7.207031 94.871094 8.085938 96.398438 9.839844 C 97.917969 11.59375 98.648438 14.285156 98.578125 17.90625 L 86.855469 17.90625 C 86.890625 19.308594 87.265625 20.398438 87.992188 21.175781 C 88.707031 21.957031 89.609375 22.347656 90.679688 22.347656 C 91.414062 22.347656 92.027344 22.144531 92.523438 21.746094 C 93.027344 21.34375 93.402344 20.695312 93.660156 19.800781 M 93.933594 15.019531 C 93.898438 13.648438 93.550781 12.605469 92.882812 11.894531 C 92.21875 11.175781 91.40625 10.820312 90.449219 10.820312 C 89.429688 10.820312 88.585938 11.199219 87.921875 11.949219 C 87.253906 12.703125 86.929688 13.730469 86.941406 15.019531 Z M 110.515625 7.585938 L 110.515625 11.335938 L 107.300781 11.335938 L 107.300781 18.566406 C 107.300781 20.035156 107.332031 20.890625 107.394531 21.128906 C 107.457031 21.371094 107.59375 21.570312 107.816406 21.734375 C 108.03125 21.886719 108.292969 21.96875 108.605469 21.96875 C 109.046875 21.96875 109.671875 21.820312 110.496094 21.515625 L 110.890625 25.183594 C 109.800781 25.65625 108.574219 25.890625 107.195312 25.890625 C 106.351562 25.890625 105.59375 25.746094 104.914062 25.460938 C 104.238281 25.171875 103.742188 24.800781 103.429688 24.347656 C 103.109375 23.886719 102.894531 23.273438 102.765625 22.496094 C 102.671875 21.945312 102.621094 20.832031 102.621094 19.152344 L 102.621094 11.335938 L 100.464844 11.335938 L 100.464844 7.585938 L 102.621094 7.585938 L 102.621094 4.042969 L 107.300781 1.257812 L 107.300781 7.585938 Z M 110.515625 7.585938 "/>
</g>
</svg>
